<svg xmlns="http://www.w3.org/2000/svg" width="500" zoomAndPan="magnify"
     viewBox="0 0 375 374.999991" height="500" preserveAspectRatio="xMidYMid meet" version="1.0">
    <defs>
        <g/>
    </defs>
    <g fill="#ffffff" fill-opacity="1">
        <g transform="translate(48.269533, 262.233228)">
            <g>
                <path d="M 57.023438 0 C 107.972656 0 135.996094 -26.652344 135.996094 -75.050781 C 135.996094 -123.0625 107.972656 -149.515625 57.023438 -149.515625 L 11.757812 -149.515625 L 11.757812 0 Z M 46.835938 -118.164062 L 56.632812 -118.164062 C 83.871094 -118.164062 100.917969 -103.46875 100.917969 -75.050781 C 100.917969 -44.679688 85.4375 -31.355469 56.632812 -31.355469 L 46.835938 -31.355469 Z M 46.835938 -118.164062 "/>
            </g>
        </g>
    </g>
    <g fill="#ffffff" fill-opacity="1">
        <g transform="translate(190.536259, 262.233228)">
            <g>
                <path d="M 46.835938 0 L 46.835938 -67.019531 L 93.667969 0 L 136.191406 0 L 80.539062 -77.011719 L 135.410156 -149.515625 L 93.277344 -149.515625 L 46.835938 -84.65625 L 46.835938 -149.515625 L 11.757812 -149.515625 L 11.757812 0 Z M 46.835938 0 "/>
            </g>
        </g>
    </g>
</svg>